<svg version="1.2" xmlns="http://www.w3.org/2000/svg" viewBox="0 0 601 84" width="601" height="84"><style>.a{fill:#00aae6}</style><path fill-rule="evenodd" class="a" d="m384.7 31.5l-0.1 50.6h-17.6v-5.8c0 0-5 6.8-15.2 7.1 0 0-25.8-0.3-25.3-27.2 0 0 0-24.6 25-25.5 0 0 9.9-0.9 15.1 5.5v-4.6zm-17.2 25.8c0-6.2-5.1-11.2-11.4-11.2-6.3 0-11.4 5-11.4 11.2 0 6.2 5.1 11.2 11.4 11.2 6.3 0 11.4-5 11.4-11.2z"/><path class="a" d="m309.4 32.7l-11.8 23.2-10.8-25.1h-13.9c-8 0.1-15.5 8.5-15.5 8.5l0.3-6.8h-17.5l-0.1 50h18.3l0.4-25.6c-0.2-13.6 14.5-10.5 14.5-10.5l19 35.8 10.9 0.1 26.8-49.8z"/><path class="a" d="m153.4 30.5c-8.2-0.1-14.6 7.6-14.6 7.6l-0.1-5.6h-17.2l0.1 49.7h17.4l0.2-26.6c-0.1-10.9 8.6-11 8.6-11 8.2 0.1 7.6 7.6 7.6 7.6v29.5h18.4l0.2-34.3c0-19.2-20.6-16.9-20.6-16.9z"/><path class="a" d="m93.8 81.9h17.5v-49.4h-17.5z"/><path class="a" d="m72 31c0 0-14.3-2.9-21.3 7.7 0 0-4.4-8-16.9-8 0 0-11.2 0.1-15.4 5.6v-3.8h-18.1v49.2h18.1v-30.6c0 0 1-6.9 7.6-6.8 0 0 6.9-0.7 7.2 8.1v29.5h18v-29.5c0 0-0.1-8.2 7.3-8.2 0 0 7.6-0.4 7.5 6.6v31.1h17.4v-31.1c0 0 1.2-18.9-11.4-19.8z"/><path fill-rule="evenodd" class="a" d="m235 60.6l-36.7-0.3c0.5 11.2 9.9 10.4 9.9 10.4 7.8 0 7.6-4.4 7.6-4.4l18.7 0.1c-7.7 18.9-25.7 17-25.7 17-31 0-28.8-26.4-28.8-26.4 0.2-28.3 27.8-26 27.8-26 32-0.4 27.2 29.6 27.2 29.6zm-27-19.3c0 0-8.5 0.8-9.5 8h18.7c0 0 0.6-7.4-9.2-8z"/><g style="opacity:.5"><path class="a" d="m422.9 38.1h0.2c4.2-5.7 9.4-8.1 16-8.1 7.3 0 13.6 3 17.2 9.9 3.5-6.5 10.3-9.9 17.2-9.9 12.8 0 17.3 8.5 17.3 20.4v32.7h-18v-24.5c0-5.3 0.2-14-7.4-14-8.3 0-8.6 7.9-8.6 14v24.5h-17.9v-24.5c0-5.7 0-14.4-8-14.4-8 0-8 8.7-8 14.4v24.5h-18v-51.4h18z"/><path class="a" d="m520.5 50.3l18.7-18.6h24.5l-25.3 23.8 26.9 27.6h-25.2l-19.6-20.9v20.9h-18v-66.8l18-16.3z"/><path class="a" d="m590.1 83.1h-18v-36.3h-5.8v-15.1h5.8v-5.3l18-10.1v15.4h10.2v15.1h-10.2z"/></g></svg>